<svg xmlns="http://www.w3.org/2000/svg" xmlns:xlink="http://www.w3.org/1999/xlink" width="744" height="88" viewBox="0 0 744 88" xml:space="preserve"><path d="M0 .126h14.629v88.268H0zM96.052 0v52.909L37.292 0v88.271h14.625V35.482l58.886 52.913v-.256.132V0zm30.272.126v14.749h29.499v73.52h14.761v-73.52h29.373V.126zm150.684 0V36.88h-44.133V.126H218.25v88.269h14.625V51.634h44.133v36.761h14.757V.126zm40.59 0v88.269h58.764V73.64h-44.133V51.634h44.133v-14.62h-44.133V14.875h44.133V.126zm84.603 0v88.269h58.758V73.64h-44.128V.126z"/><defs><path id="a" d="M0 0h743.965v88.394H0z"/></defs><clipPath id="b"><use xlink:href="#a"/></clipPath><path clip-path="url(#b)" d="M685.077 59.012v29.382h-14.625V.126h44.135c8.053 0 14.963 2.882 20.726 8.649 5.766 5.77 8.653 12.719 8.653 20.851 0 8.06-2.888 15.016-8.653 20.862-5.763 5.681-12.673 8.523-20.726 8.523h-29.51zm0-44.137v29.383h29.51c3.982 0 7.42-1.438 10.302-4.323 2.881-2.882 4.316-6.312 4.316-10.308 0-4.061-1.436-7.538-4.316-10.429-2.882-2.876-6.319-4.323-10.302-4.323h-29.51z"/><path clip-path="url(#b)" fill="#71D54C" d="M614.199.151c-22.268 0-45.827 24.671-48.506 27.55l4.274 4.997c4.808-4.907 26.379-25.887 44.231-25.887 20.659 0 37.466 16.804 37.466 37.458 0 10.192-3.997 19.73-11.238 26.874-6.953 6.845-16.067 10.595-25.704 10.595-.178 0-.357 0-.554-.003-22.987-.342-39.712-20.27-49.707-32.185a582.628 582.628 0 0 0-3.368-3.963c-1.232-1.407-2.593-3.051-4.015-4.794-9.848-11.94-24.719-29.989-45.632-29.989-18.454 0-33.479 15.01-33.479 33.465 0 18.458 15.025 33.471 33.479 33.471 16.651 0 37.713-19.822 41.948-23.984l-4.366-5.078c-5.738 5.921-24.595 22.412-37.582 22.412-14.784 0-26.816-12.032-26.816-26.821 0-14.782 12.032-26.811 26.816-26.811 17.767 0 31.438 16.589 40.488 27.569 1.466 1.782 2.853 3.46 4.139 4.938a218.004 218.004 0 0 1 3.288 3.871C570.096 66.612 588.047 88 614.069 88.391c.229.003.443.003.659.003 11.399 0 22.157-4.424 30.359-12.51 8.535-8.402 13.232-19.632 13.232-31.615.001-24.324-19.797-44.118-44.12-44.118"/><path clip-path="url(#b)" fill="#71D54C" d="M473.982 44.27c0-20.654 16.8-37.458 37.466-37.458 22.791 0 38.383 18.923 48.702 31.442 1.436 1.739 2.754 3.337 3.954 4.714a384.589 384.589 0 0 1 3.411 4.018c9.564 11.39 25.557 30.442 46.722 30.756 8.762.182 17.063-3.224 23.381-9.443 6.478-6.379 10.05-14.917 10.05-24.028 0-18.455-15.013-33.465-33.468-33.465-16.394 0-37.668 20.909-41.615 24.93l4.402 5.136c8.166-8.757 26.065-23.412 37.213-23.412 14.785 0 26.811 12.029 26.811 26.811 0 7.309-2.863 14.164-8.06 19.29-5.038 4.961-11.64 7.686-18.622 7.531-18.105-.271-32.317-17.189-41.707-28.385-1.271-1.502-2.446-2.894-3.504-4.123-1.171-1.333-2.44-2.878-3.831-4.557C554.849 21.356 537.38.151 511.448.151c-24.329 0-44.121 19.794-44.121 44.118 0 24.331 19.792 44.125 44.121 44.125 22.605 0 46.276-23.85 48.905-26.568l-4.341-5.034c-4.938 4.865-26.424 24.943-44.564 24.943-20.666 0-37.466-16.806-37.466-37.465"/></svg>
