<svg class="logo_sign" viewBox="0 0 124 116" style="enable-background:new 0 0 441.5 115" xmlns="http://www.w3.org/2000/svg">
  <style>
    .st0{fill:#00545b}
  </style>
  <path class="st0" d="M26.8 71.79H15.5l5.5-31.9H7.9L.3 83.69h24.4l2.1-11.9Zm6.1-15.8c-1.5 2-2.6 4.4-3.4 7-.8 2.6-1.1 5.4-1.1 8.3 0 2 .3 3.8.8 5.5.6 1.7 1.4 3.1 2.5 4.3 1.1 1.2 2.4 2.2 4 2.8 1.6.7 3.4 1 5.5 1 2.8 0 5.3-.6 7.5-1.8 2.1-1.2 4-2.8 5.4-4.8 1.5-2 2.6-4.4 3.3-7 .7-2.6 1.1-5.4 1.1-8.3 0-2-.3-3.8-.8-5.5-.6-1.7-1.4-3.1-2.4-4.3-1.1-1.2-2.4-2.1-4-2.8-1.6-.7-3.4-1-5.5-1-2.8 0-5.2.6-7.4 1.8-2.1 1.1-4 2.8-5.5 4.8m7.6 11.1c.2-1.2.5-2.3.8-3.3.4-1 .8-1.9 1.4-2.6.6-.7 1.2-1.1 2-1.1.9 0 1.5.4 1.9 1.1.4.7.6 1.7.6 2.9 0 1-.1 2-.3 3.1-.4 1.2-.6 2.3-1 3.3s-.9 1.9-1.5 2.6c-.6.7-1.2 1-2 1s-1.4-.4-1.7-1.1c-.3-.7-.5-1.7-.5-2.9 0-.8.1-1.9.3-3m49.7-4.1c0-2-.3-3.8-.8-5.5-.6-1.7-1.4-3.1-2.4-4.3-1.1-1.2-2.4-2.1-4-2.8-1.6-.7-3.4-1-5.5-1-2.8 0-5.2.6-7.4 1.8-2.2 1.2-4 2.8-5.5 4.8s-2.6 4.4-3.4 7c-.8 2.6-1.1 5.4-1.1 8.3 0 2 .3 3.8.8 5.5.6 1.7 1.4 3.1 2.5 4.3 1.1 1.2 2.4 2.2 4 2.8 1.6.7 3.4 1 5.5 1 2.8 0 5.3-.6 7.5-1.8 2.1-1.2 4-2.8 5.4-4.8 1.5-2 2.6-4.4 3.3-7 .7-2.6 1.1-5.4 1.1-8.3m-11.9 4.3c-.2 1.1-.5 2.2-.9 3.3-.4 1-.9 1.9-1.5 2.6-.6.7-1.2 1-2 1s-1.4-.4-1.7-1.1c-.3-.7-.5-1.7-.5-2.9 0-.9.1-1.9.3-3.1.2-1.2.5-2.3.8-3.3.4-1 .8-1.9 1.4-2.6.6-.7 1.2-1.1 1.9-1.1.9 0 1.5.4 1.9 1.1.4.7.6 1.7.6 2.9 0 1-.1 2-.3 3.2m44.8-10.4c-.4-1.5-.9-2.7-1.7-3.8-.7-1.1-1.7-1.9-2.8-2.5-1.2-.6-2.5-.9-4.1-.9-1.4 0-2.7.4-3.9 1.2-1.1.8-2.1 1.8-2.9 3.1h-.2l.6-3.3H96.4l-8.2 48h12l3-17.8h.1c.3 1 1 1.9 2 2.7 1 .8 2.4 1.2 4.2 1.2 2.4 0 4.4-.7 6.2-2.2 1.8-1.4 3.3-3.3 4.4-5.5 1.2-2.2 2.1-4.7 2.7-7.4.6-2.7.9-5.3.9-7.9 0-1.9-.2-3.5-.6-4.9m-11.8 10.3c-.2 1.2-.5 2.3-.8 3.3-.4 1-.8 1.9-1.4 2.6-.6.7-1.2 1.1-2 1.1s-1.4-.4-1.8-1.1c-.4-.7-.6-1.7-.6-2.9 0-.9.1-1.9.3-3.1.2-1.2.5-2.3.8-3.3.4-1 .8-1.9 1.4-2.6.6-.7 1.2-1.1 2-1.1.9 0 1.5.4 1.9 1.1.4.7.6 1.7.6 2.8-.1 1-.2 2-.4 3.2"/>
  <path d="M61.5 7.69c14.9 0 29.1 6.8 38.6 18.1l-6.2 5.2c-1.4 1.1-1.1 2.5.6 3l18.8 5.8c1.7.5 2.9-.5 2.7-2.2l-2.3-19.5c-.2-1.8-1.5-2.3-2.9-1.1l-5.2 4.3C94.8 8.19 78.6.49 61.5.49c-20.3 0-39.2 10.9-49.5 28.4l6.2 3.7c9-15.4 25.6-24.9 43.3-24.9m0 100.4c-8.5 0-16.7-2.1-24-6.1l3.9-5.8c1-1.5.3-2.7-1.4-2.7l-19.7-.3c-1.8 0-2.7 1.3-2 2.9l7.7 18.1c.7 1.6 2.1 1.8 3.1.3l4.4-6.5c8.5 4.8 18.1 7.3 28 7.3 8.2 0 16.1-1.7 23.5-5l-3-6.6c-6.4 2.9-13.3 4.4-20.5 4.4" style="fill:#39b54a"/>
  <path class="st0" d="M36.4 41.99h3.2l2.5-14.3h-3.2l-2.5 14.3Zm7-10.4-1.8 10.4h3l1-5.9c.2-1.4 1.1-2.1 2.1-2.1.9 0 1.6.7 1.3 2.1l-1 5.9h3l1.1-6.4c.5-2.6-1.1-4.2-3-4.2-1 0-2 .3-2.8 1l.2-.8h-3.1Zm19.8 2.6h2.5l.5-2.6h-2.4l.5-2.6h-3.1l-.5 2.6H59l-.4 2.6h1.7l-.7 4.1c-.1.3-.1.6-.1.8-.1 2.4 1.4 3.1 3 3.1.7 0 1.8-.1 2.4-.3l.4-2.5c-.5.1-1.4.1-1.8.1-.7 0-.9-.4-1-.9v-.4l.7-4Zm8.9 7.8h3l1.1-6.4c.4-2.6-1.1-4.2-3-4.2-1 0-2 .3-2.8 1l1-5.7h-3.1l-2.7 15.3h3l1-5.9c.2-1.4 1.1-2.1 2.1-2.1.9 0 1.6.7 1.4 2.1l-1 5.9Zm15.1-5.8c0-2.6-1.5-4.8-4.6-4.8-3.5 0-5.4 2.8-5.4 6 0 3.1 1.8 4.9 4.7 4.9 1.9 0 3.4-.7 4.6-1.9l-1.7-1.7c-.7.7-1.6 1.2-2.6 1.2-1.3 0-1.9-.7-2-2h6.9c0-.7.1-1.2.1-1.7m-3-.3h-3.8c.3-1.3.9-2.2 2.1-2.2 1.2 0 1.7.8 1.7 2v.2"/>
</svg>
