<svg width="191.1" height="88" viewBox="0 0 191.1 89" xmlns="http://www.w3.org/2000/svg"><clipPath id="a"><path d="M0 0h191.2v88.394H0V0Z" overflow="visible"/></clipPath><path clip-path="url(#a)" fill="#71D54C" d="M146.605-.141c-22.268 0-45.827 24.671-48.506 27.55l4.274 4.997c4.808-4.907 26.379-25.887 44.231-25.887 20.659 0 37.466 16.804 37.466 37.458 0 10.192-3.997 19.73-11.238 26.874-6.953 6.845-16.067 10.595-25.704 10.595-.178 0-.357 0-.554-.003-22.987-.342-39.712-20.27-49.707-32.185a606.84 606.84 0 0 0-3.368-3.963c-1.232-1.407-2.593-3.051-4.015-4.794-9.848-11.94-24.719-29.989-45.632-29.989-18.454 0-33.479 15.01-33.479 33.465 0 18.458 15.025 33.471 33.479 33.471 16.651 0 37.713-19.822 41.948-23.984l-4.366-5.078c-5.738 5.921-24.595 22.412-37.582 22.412-14.784 0-26.816-12.032-26.816-26.821 0-14.782 12.032-26.811 26.816-26.811 17.767 0 31.438 16.589 40.488 27.569 1.466 1.782 2.853 3.46 4.139 4.938a220.203 220.203 0 0 1 3.288 3.871c10.735 12.776 28.686 34.164 54.708 34.555.229.003.443.003.659.003 11.399 0 22.157-4.424 30.359-12.51 8.535-8.402 13.232-19.632 13.232-31.615.001-24.324-19.797-44.118-44.12-44.118"/><path clip-path="url(#a)" fill="#71D54C" d="M6.68 44.27c0-20.654 16.8-37.458 37.466-37.458 22.791 0 38.383 18.923 48.702 31.442 1.436 1.739 2.754 3.337 3.954 4.714a395.217 395.217 0 0 1 3.411 4.018c9.564 11.39 25.557 30.442 46.722 30.756 8.762.182 17.063-3.224 23.381-9.443 6.478-6.379 10.05-14.917 10.05-24.028 0-18.455-15.013-33.465-33.468-33.465-16.394 0-37.668 20.909-41.615 24.93l4.402 5.136c8.166-8.757 26.065-23.412 37.213-23.412 14.785 0 26.811 12.029 26.811 26.811 0 7.309-2.863 14.164-8.06 19.29-5.038 4.961-11.64 7.686-18.622 7.531-18.105-.271-32.317-17.189-41.707-28.385-1.271-1.502-2.446-2.894-3.504-4.123-1.171-1.333-2.44-2.878-3.831-4.557C87.547 21.356 70.078.151 44.146.151 19.817.151.025 19.945.025 44.269c0 24.331 19.792 44.125 44.121 44.125 22.605 0 46.276-23.85 48.905-26.568l-4.341-5.034c-4.938 4.865-26.424 24.943-44.564 24.943C23.48 81.735 6.68 64.929 6.68 44.27"/></svg>